# xmcd
# 
# Track frame offsets:
#     150
#     12538
#     25314
#     38373
#     50717
#     61050
#     73673
#     86193
#     98497
#     109948
#     121287
#     133089
#     147287
#     157402
#     177375
#     190505
#     202947
#     215240
#     230060
#     243306
# 
# Disc length: 3415
# 
# Revision: 0
# Processed by: cddbd v1.5.2PL0 Copyright (c) Steve Scherf et al.
# Submitted via: fre:ac v1.0.31
# 
DISCID=260d5514
DTITLE=Various Artist - Country and Western No.1
DYEAR=2017
DGENRE=Country
TTITLE0=Your Cheatin' Heart
TTITLE1=High Noon
TTITLE2=My Old Pal
TTITLE3=Release Me
TTITLE4=Y'all Come
TTITLE5=Kentucky Waltz
TTITLE6=The Prodigal
TTITLE7=Goin' Steady
TTITLE8=Young Love
TTITLE9=Hey Joe
TTITLE10=Mansion On The Hill
TTITLE11=Can The Circle Be Unbroken
TTITLE12=Cotton Fields
TTITLE13=El Paso
TTITLE14=Anytime
TTITLE15=Yellow Roses
TTITLE16=Cool Water
TTITLE17=The White Dove
TTITLE18=Jambalaya
TTITLE19=The Ballad Of Davy Crockett
EXTD=
EXTT0=
EXTT1=
EXTT2=
EXTT3=
EXTT4=
EXTT5=
EXTT6=
EXTT7=
EXTT8=
EXTT9=
EXTT10=
EXTT11=
EXTT12=
EXTT13=
EXTT14=
EXTT15=
EXTT16=
EXTT17=
EXTT18=
EXTT19=
PLAYORDER=
